# xmcd
# 
# Track frame offsets:
#     150
#     27413
#     55876
#     79170
#     99795
#     132113
#     147044
#     164204
#     179317
# 
# Disc length: 2638
# 
# Revision: 0
# Processed by: cddbd v1.5.2PL0 Copyright (c) Steve Scherf et al.
# Submitted via: fre:ac v1.0.27
# 
DISCID=730a4c09
DTITLE=Michael Powers - Bluesiana Breeze "3 Decades"
DYEAR=2007
DGENRE=Blues
TTITLE0=19seventysix (Acoustic)
TTITLE1=Istanbul (Acoustic)
TTITLE2=Istanbul (Orchestea)
TTITLE3=Bluesiana Breeze (Acoustic)
TTITLE4=Bluesiana (Powder Keg Band)
TTITLE5=Streetcorner Rhapsody (Powder Keg Band)
TTITLE6=In Memory Of
TTITLE7=Burning House (Acoustic)
TTITLE8=ESP Frequency 2007 (Acoustic)
EXTD=
EXTT0=
EXTT1=
EXTT2=
EXTT3=
EXTT4=
EXTT5=
EXTT6=
EXTT7=
EXTT8=
PLAYORDER=
